<svg xmlns="http://www.w3.org/2000/svg" xmlns:xlink="http://www.w3.org/1999/xlink" viewBox="0,0,256,256" width="16px" height="16px"><g fill="#d4e8f7" fill-rule="nonzero" stroke="none" stroke-width="1" stroke-linecap="butt" stroke-linejoin="miter" stroke-miterlimit="10" stroke-dasharray="" stroke-dashoffset="0" font-family="none" font-weight="none" font-size="none" text-anchor="none" style="mix-blend-mode: normal"><g transform="scale(10.66667,10.66667)"><path d="M5,3c-1.104,0 -2,0.895 -2,2v14c0,1.105 0.896,2 2,2h14c1.104,0 2,-0.895 2,-2v-14c0,-1.105 -0.896,-2 -2,-2zM5,5h14v14h-14zM15.96875,7.30078v3.17578c-0.324,-0.422 -0.73075,-0.63281 -1.21875,-0.63281c-0.672,0 -1.18416,0.25558 -1.53516,0.76758c-0.351,0.512 -0.52734,1.28717 -0.52734,2.32617v0.48047c0.008,0.984 0.18516,1.72833 0.53516,2.23633c0.35,0.508 0.85748,0.76367 1.52149,0.76367c0.536,0 0.9725,-0.25567 1.3125,-0.76367l0.07617,0.64648h1.50586v-9zM10.25195,7.76758l-1.14844,2.92969l-1.15039,-2.92773h-1.97461l2.00977,4.22852l-2.05078,4.30273h2l1.16602,-2.98437l1.17188,2.98242h1.99805l-2.05078,-4.30078l2.00391,-4.23047zM15.23242,11.23047c0.328,0 0.57428,0.15575 0.73828,0.46875v2.89648c-0.168,0.293 -0.41614,0.43945 -0.74414,0.43945c-0.317,0 -0.54083,-0.12505 -0.67383,-0.37305c-0.133,-0.248 -0.19922,-0.68359 -0.19922,-1.30859v-0.44141c0,-0.629 0.06994,-1.0665 0.21094,-1.3125c0.141,-0.246 0.36297,-0.36914 0.66797,-0.36914z"></path></g></g></svg>