<svg xmlns="http://www.w3.org/2000/svg" xmlns:xlink="http://www.w3.org/1999/xlink" viewBox="0,0,256,256" width="16px" height="16px"><g fill="#d4e8f7" fill-rule="nonzero" stroke="none" stroke-width="1" stroke-linecap="butt" stroke-linejoin="miter" stroke-miterlimit="10" stroke-dasharray="" stroke-dashoffset="0" font-family="none" font-weight="none" font-size="none" text-anchor="none" style="mix-blend-mode: normal"><g transform="scale(10.66667,10.66667)"><path d="M6.87695,2c-2.68125,0 -4.87695,2.19571 -4.87695,4.87695v10.24609c0,2.68125 2.19571,4.87695 4.87695,4.87695h10.24609c2.68125,0 4.87695,-2.1945 4.87695,-4.875v-10.24805c0,-2.68125 -2.1945,-4.87695 -4.875,-4.87695zM6.87695,4h10.24805c1.5995,0 2.875,1.2762 2.875,2.87695v10.24805c0,1.5995 -1.2762,2.875 -2.87695,2.875h-10.24609c-1.60075,0 -2.87695,-1.2762 -2.87695,-2.87695v-10.24609c0,-1.60075 1.2762,-2.87695 2.87695,-2.87695zM12.94922,6.28516c0.984,1.969 1.75784,3.12894 1.08984,5.83594c-1.055,-0.703 -5.06145,-3.86672 -5.93945,-4.88672c0.633,1.125 2.56622,3.62091 3.19922,4.25391c-1.126,-0.773 -4.74805,-3.62109 -4.74805,-3.62109c0,0 3.09431,4.67777 5.69531,6.25977c-0.984,0.316 -3.023,1.54672 -6.75,-0.73828c0.949,1.301 2.53053,3.97256 6.64453,3.72656c1.441,-0.07 2.31991,-0.52675 3.12891,-0.84375c0.809,-0.316 1.582,-0.28094 2.25,0.91406c0.141,-1.09 0.17578,-2.11048 -0.94922,-3.27148c0,0 1.65191,-4.14791 -3.62109,-7.62891z"></path></g></g></svg>